<svg xmlns="http://www.w3.org/2000/svg" width="654.288" height="277.128" viewBox="0 0 654.288 277.128">
  <g id="Group_7273" data-name="Group 7273" transform="translate(-10456.251 -2251.474)">
    <path id="Path_12506" data-name="Path 12506" d="M10421.01,2576.784l46.131-53.783,47.513-15.471,42.758,59.551,66.946-12.1L10654.27,2523l99.657-40.869,82.809,56.806,125.164-84.01,36.063,37.98,75.693-142.37" transform="translate(36 -60)" fill="none" stroke="#f4b07e" stroke-width="2"/>
    <line id="Line_706" data-name="Line 706" y2="36.278" transform="translate(10492.528 2378.757)" fill="none" stroke="#f4b07e" stroke-width="1"/>
    <line id="Line_707" data-name="Line 707" y2="31.546" transform="translate(10506.725 2410.304)" fill="none" stroke="#f4b07e" stroke-width="1"/>
    <line id="Line_709" data-name="Line 709" y2="55.206" transform="translate(10541.425 2392.953)" fill="none" stroke="#f4b07e" stroke-width="1"/>
    <line id="Line_710" data-name="Line 710" y2="47.319" transform="translate(10557.198 2353.521)" fill="none" stroke="#f4b07e" stroke-width="1"/>
    <line id="Line_712" data-name="Line 712" y2="53.629" transform="translate(10592.899 2347.211)" fill="none" stroke="#fedfa1" stroke-width="1"/>
    <line id="Line_737" data-name="Line 737" y2="53.629" transform="translate(10610.899 2331.211)" fill="none" stroke="#fedfa1" stroke-width="1"/>
    <line id="Line_714" data-name="Line 714" y2="66.247" transform="translate(10647.069 2260.459)" fill="none" stroke="#f4b07e" stroke-width="1"/>
    <line id="Line_715" data-name="Line 715" y2="50.474" transform="translate(10668.887 2303.046)" fill="none" stroke="#f4b07e" stroke-width="1"/>
    <line id="Line_716" data-name="Line 716" y2="44.165" transform="translate(10685.25 2351.943)" fill="none" stroke="#fedfa1" stroke-width="1"/>
    <line id="Line_718" data-name="Line 718" y2="33.124" transform="translate(10725.249 2329.861)" fill="none" stroke="#fedfa1" stroke-width="1"/>
    <line id="Line_719" data-name="Line 719" y2="39.433" transform="translate(10745.248 2307.778)" fill="none" stroke="#fedfa1" stroke-width="1"/>
    <line id="Line_720" data-name="Line 720" y2="48.897" transform="translate(10763.43 2345.634)" fill="none" stroke="#fedfa1" stroke-width="1"/>
    <line id="Line_721" data-name="Line 721" y2="37.856" transform="translate(10783.43 2381.912)" fill="none" stroke="#fedfa1" stroke-width="1"/>
    <line id="Line_722" data-name="Line 722" y2="66.247" transform="translate(10803.429 2394.531)" fill="none" stroke="#fedfa1" stroke-width="1"/>
    <line id="Line_723" data-name="Line 723" y2="50.474" transform="translate(10823.428 2437.118)" fill="none" stroke="#fedfa1" stroke-width="1"/>
    <line id="Line_724" data-name="Line 724" y2="61.515" transform="translate(10843.428 2467.087)" fill="none" stroke="#fedfa1" stroke-width="1"/>
    <line id="Line_725" data-name="Line 725" y2="44.165" transform="translate(10863.427 2476.551)" fill="none" stroke="#fedfa1" stroke-width="1"/>
    <line id="Line_726" data-name="Line 726" y2="52.051" transform="translate(10881.608 2476.551)" fill="none" stroke="#fedfa1" stroke-width="1"/>
    <line id="Line_727" data-name="Line 727" y2="66.247" transform="translate(10899.789 2449.737)" fill="none" stroke="#fedfa1" stroke-width="1"/>
    <line id="Line_728" data-name="Line 728" y2="53.629" transform="translate(10919.789 2426.077)" fill="none" stroke="#fedfa1" stroke-width="1"/>
    <line id="Line_729" data-name="Line 729" y2="41.01" transform="translate(10939.788 2410.304)" fill="none" stroke="#fedfa1" stroke-width="1"/>
    <line id="Line_730" data-name="Line 730" y2="64.67" transform="translate(10957.97 2366.139)" fill="none" stroke="#fedfa1" stroke-width="1"/>
    <line id="Line_738" data-name="Line 738" y2="52.644" transform="translate(10974.97 2347.165)" fill="none" stroke="#f4b07e" stroke-width="1"/>
    <line id="Line_731" data-name="Line 731" y2="64.67" transform="translate(10990.974 2345.634)" fill="none" stroke="#f4b07e" stroke-width="1"/>
    <line id="Line_732" data-name="Line 732" y2="42.587" transform="translate(11006.746 2326.706)" fill="none" stroke="#f4b07e" stroke-width="1"/>
    <line id="Line_734" data-name="Line 734" y2="20.505" transform="translate(11041.447 2282.541)" fill="none" stroke="#f4b07e" stroke-width="1"/>
    <line id="Line_736" data-name="Line 736" y2="20.505" transform="translate(11073.148 2260.15)" fill="none" stroke="#f4b07e" stroke-width="1"/>
    <line id="Line_733" data-name="Line 733" y2="77.288" transform="translate(11024.097 2268.345)" fill="none" stroke="#f4b07e" stroke-width="1"/>
    <line id="Line_735" data-name="Line 735" y2="45.742" transform="translate(11058.798 2288.851)" fill="none" stroke="#f4b07e" stroke-width="1"/>
    <line id="Line_717" data-name="Line 717" y2="59.938" transform="translate(10705.25 2356.675)" fill="none" stroke="#fedfa1" stroke-width="1"/>
    <line id="Line_713" data-name="Line 713" y2="85.175" transform="translate(10627.07 2290.428)" fill="none" stroke="#f4b07e" stroke-width="1"/>
    <line id="Line_711" data-name="Line 711" y2="94.639" transform="translate(10574.549 2355.098)" fill="none" stroke="#f4b07e" stroke-width="1"/>
    <line id="Line_708" data-name="Line 708" y2="69.402" transform="translate(10524.074 2403.994)" fill="none" stroke="#f4b07e" stroke-width="1"/>
    <g id="Group_7303" data-name="Group 7303">
      <rect id="Rectangle_3185" data-name="Rectangle 3185" width="11.041" height="15.773" transform="translate(11067.626 2251.474)" fill="#ffe8ce"/>
      <rect id="Rectangle_3155" data-name="Rectangle 3155" width="11.041" height="34.701" transform="translate(10641.548 2284.907)" fill="#ffe8ce"/>
      <rect id="Rectangle_3162" data-name="Rectangle 3162" width="11.041" height="63.093" transform="translate(10621.549 2302.258)" fill="#ffe8ce"/>
      <rect id="Rectangle_3165" data-name="Rectangle 3165" width="11.041" height="39.433" transform="translate(10587.549 2352.732)" fill="#ffe8ce"/>
      <rect id="Rectangle_3214" data-name="Rectangle 3214" width="11.041" height="26.433" transform="translate(10605.549 2336.732)" fill="#ffe8ce"/>
      <g id="Rectangle_3167" data-name="Rectangle 3167" transform="translate(10551.676 2360.618)" fill="#fff" stroke="#f4b07e" stroke-width="1">
        <rect width="11.041" height="34.701" stroke="none"/>
        <rect x="0.5" y="0.5" width="10.041" height="33.701" fill="none"/>
      </g>
      <g id="Rectangle_3168" data-name="Rectangle 3168" transform="translate(10535.904 2403.206)" fill="#fff" stroke="#f4b07e" stroke-width="1">
        <rect width="11.041" height="34.701" stroke="none"/>
        <rect x="0.5" y="0.5" width="10.041" height="33.701" fill="none"/>
      </g>
      <rect id="Rectangle_3169" data-name="Rectangle 3169" width="11.041" height="55.206" transform="translate(10518.553 2412.67)" fill="#ffe8ce"/>
      <rect id="Rectangle_3170" data-name="Rectangle 3170" width="11.041" height="14.196" transform="translate(10501.202 2414.247)" fill="#ffe8ce"/>
      <rect id="Rectangle_3171" data-name="Rectangle 3171" width="11.041" height="22.082" transform="translate(10487.006 2385.855)" fill="#ffe8ce"/>
      <rect id="Rectangle_3160" data-name="Rectangle 3160" width="11.041" height="29.969" transform="translate(10739.728 2313.299)" fill="#ffe8ce"/>
      <rect id="Rectangle_3161" data-name="Rectangle 3161" width="11.041" height="34.701" transform="translate(10757.907 2349.577)" fill="#ffe8ce"/>
      <rect id="Rectangle_3163" data-name="Rectangle 3163" width="11.041" height="20.505" transform="translate(10777.907 2389.01)" fill="#ffe8ce"/>
      <rect id="Rectangle_3172" data-name="Rectangle 3172" width="11.041" height="33.124" transform="translate(10817.906 2445.793)" fill="#ffe8ce"/>
      <rect id="Rectangle_3173" data-name="Rectangle 3173" width="11.041" height="44.165" transform="translate(10837.906 2471.03)" fill="#ffe8ce"/>
      <rect id="Rectangle_3175" data-name="Rectangle 3175" width="11.041" height="33.124" transform="translate(10876.086 2482.071)" fill="#ffe8ce"/>
      <rect id="Rectangle_3177" data-name="Rectangle 3177" width="11.041" height="25.237" transform="translate(10914.268 2448.948)" fill="#ffe8ce"/>
      <rect id="Rectangle_3178" data-name="Rectangle 3178" width="11.041" height="20.505" transform="translate(10934.267 2425.288)" fill="#ffe8ce"/>
      <rect id="Rectangle_3179" data-name="Rectangle 3179" width="11.041" height="45.742" transform="translate(10952.447 2379.546)" fill="#ffe8ce"/>
      <rect id="Rectangle_3215" data-name="Rectangle 3215" width="11.041" height="28.742" transform="translate(10969.447 2365.546)" fill="#ffe8ce"/>
      <rect id="Rectangle_3180" data-name="Rectangle 3180" width="11.041" height="34.701" transform="translate(10985.452 2365.35)" fill="#ffe8ce"/>
      <rect id="Rectangle_3183" data-name="Rectangle 3183" width="11.041" height="15.773" transform="translate(11035.927 2291.217)" fill="#ffe8ce"/>
      <rect id="Rectangle_3184" data-name="Rectangle 3184" width="11.041" height="23.66" transform="translate(11053.276 2277.021)" fill="#ffe8ce"/>
    </g>
    <g id="Rectangle_3166" data-name="Rectangle 3166" transform="translate(10569.027 2360.618)" fill="#fff" stroke="#f4b07e" stroke-width="1">
      <rect width="11.041" height="63.093" stroke="none"/>
      <rect x="0.5" y="0.5" width="10.041" height="62.093" fill="none"/>
    </g>
    <g id="Rectangle_3156" data-name="Rectangle 3156" transform="translate(10663.365 2318.031)" fill="#fff" stroke="#fcae16" stroke-width="1">
      <rect width="11.041" height="26.814" stroke="none"/>
      <rect x="0.5" y="0.5" width="10.041" height="25.814" fill="none"/>
    </g>
    <g id="Rectangle_3157" data-name="Rectangle 3157" transform="translate(10679.728 2357.464)" fill="#fff" stroke="#fcae16" stroke-width="1">
      <rect width="11.041" height="28.392" stroke="none"/>
      <rect x="0.5" y="0.5" width="10.041" height="27.392" fill="none"/>
    </g>
    <g id="Rectangle_3158" data-name="Rectangle 3158" transform="translate(10699.727 2366.927)" fill="#fff" stroke="#fcae16" stroke-width="1">
      <rect width="11.041" height="33.124" stroke="none"/>
      <rect x="0.5" y="0.5" width="10.041" height="32.124" fill="none"/>
    </g>
    <g id="Rectangle_3159" data-name="Rectangle 3159" transform="translate(10719.728 2335.382)" fill="#fff" stroke="#fcae16" stroke-width="1">
      <rect width="11.041" height="22.082" stroke="none"/>
      <rect x="0.5" y="0.5" width="10.041" height="21.082" fill="none"/>
    </g>
    <g id="Rectangle_3164" data-name="Rectangle 3164" transform="translate(10797.909 2404.783)" fill="#fff" stroke="#fcae16" stroke-width="1">
      <rect width="11.041" height="47.319" stroke="none"/>
      <rect x="0.5" y="0.5" width="10.041" height="46.319" fill="none"/>
    </g>
    <g id="Rectangle_3174" data-name="Rectangle 3174" transform="translate(10857.905 2483.649)" fill="#fff" stroke="#fcae16" stroke-width="1">
      <rect width="11.041" height="14.196" stroke="none"/>
      <rect x="0.5" y="0.5" width="10.041" height="13.196" fill="none"/>
    </g>
    <g id="Rectangle_3176" data-name="Rectangle 3176" transform="translate(10894.268 2464.721)" fill="#fff" stroke="#fcae16" stroke-width="1">
      <rect width="11.041" height="36.278" stroke="none"/>
      <rect x="0.5" y="0.5" width="10.041" height="35.278" fill="none"/>
    </g>
    <g id="Rectangle_3181" data-name="Rectangle 3181" transform="translate(11001.226 2333.804)" fill="#fff" stroke="#f4b07e" stroke-width="1">
      <rect width="11.041" height="23.66" stroke="none"/>
      <rect x="0.5" y="0.5" width="10.041" height="22.66" fill="none"/>
    </g>
    <g id="Rectangle_3182" data-name="Rectangle 3182" transform="translate(11018.575 2292.794)" fill="#fff" stroke="#f4b07e" stroke-width="1">
      <rect width="11.041" height="44.165" stroke="none"/>
      <rect x="0.5" y="0.5" width="10.041" height="43.165" fill="none"/>
    </g>
  </g>
</svg>
