<svg xmlns="http://www.w3.org/2000/svg" width="77.994" height="65.513" viewBox="0 0 77.994 65.513"><defs><style>.a{fill:#f4b07e;}.b,.e{fill:#222020;}.c{fill:#fff;}.d,.e{stroke:none;}</style></defs><g transform="translate(-9.083 -19.405)"><path class="a" d="M16.03,72.714H10.472a1.389,1.389,0,0,1,0-2.779H16.03a1.389,1.389,0,0,1,0,2.779Z" transform="translate(0 -24.636)"/><path class="a" d="M16.03,112.714H10.472a1.389,1.389,0,1,1,0-2.779H16.03a1.389,1.389,0,1,1,0,2.779Z" transform="translate(0 -50.742)"/><path class="a" d="M16.03,152.714H10.472a1.389,1.389,0,0,1,0-2.779H16.03a1.389,1.389,0,0,1,0,2.779Z" transform="translate(0 -76.849)"/><path class="a" d="M16.03,32.714H10.472a1.389,1.389,0,1,1,0-2.779H16.03a1.389,1.389,0,1,1,0,2.779Z" transform="translate(0 1.47)"/><path class="a" d="M16.03,32.714H10.472a1.389,1.389,0,1,1,0-2.779H16.03a1.389,1.389,0,1,1,0,2.779Z" transform="translate(0 -10.53)"/><g class="b" transform="translate(-18.403 -130.456)"><path class="d" d="M 104.5622711181641 215.2243804931641 L 41.53491973876953 215.2243804931641 C 41.11148834228516 215.2243804931641 40.76700973510742 214.8454437255859 40.76700973510742 214.3796844482422 C 40.76700973510742 213.9139251708984 41.11148834228516 213.5349884033203 41.53491973876953 213.5349884033203 L 104.5622711181641 213.5349884033203 C 104.9857025146484 213.5349884033203 105.330192565918 213.9139251708984 105.330192565918 214.3796844482422 C 105.330192565918 214.8454437255859 104.9857025146484 215.2243804931641 104.5622711181641 215.2243804931641 Z"/><path class="e" d="M 104.5622711181641 215.0743713378906 C 104.9033584594727 215.0743713378906 105.1801910400391 214.7631530761719 105.1801910400391 214.3796844482422 C 105.1801910400391 213.9962158203125 104.9033584594727 213.6849975585938 104.5622711181641 213.6849975585938 L 41.53491973876953 213.6849975585938 C 41.19382858276367 213.6849975585938 40.91700744628906 213.9962158203125 40.91700744628906 214.3796844482422 C 40.91700744628906 214.7631530761719 41.19382858276367 215.0743713378906 41.53491973876953 215.0743713378906 L 104.5622711181641 215.0743713378906 M 104.5622711181641 215.3743743896484 L 41.53491973876953 215.3743743896484 C 41.02877807617188 215.3743743896484 40.61700820922852 214.9281616210938 40.61700820922852 214.3796844482422 C 40.61700820922852 213.8312072753906 41.02877807617188 213.3849945068359 41.53491973876953 213.3849945068359 L 104.5622711181641 213.3849945068359 C 105.0684127807617 213.3849945068359 105.4801864624023 213.8312072753906 105.4801864624023 214.3796844482422 C 105.4801864624023 214.9281616210938 105.0684127807617 215.3743743896484 104.5622711181641 215.3743743896484 Z"/></g><path class="c" d="M78.253,82.408H72a2.084,2.084,0,0,1-2.084-2.084V62.262A2.084,2.084,0,0,1,72,60.178h6.252a2.084,2.084,0,0,1,2.084,2.084V80.324A2.084,2.084,0,0,1,78.253,82.408Z" transform="translate(-39.704 -31.268)"/><path class="a" d="M138.253,122.408H132a2.084,2.084,0,0,1-2.084-2.084V102.262A2.084,2.084,0,0,1,132,100.178h6.252a2.084,2.084,0,0,1,2.084,2.084v18.062A2.084,2.084,0,0,1,138.253,122.408Z" transform="translate(-80.863 -57.374)"/><path class="c" d="M198.253,102.408H192a2.084,2.084,0,0,1-2.084-2.084V82.262A2.084,2.084,0,0,1,192,80.178h6.252a2.084,2.084,0,0,1,2.084,2.084v18.062A2.084,2.084,0,0,1,198.253,102.408Z" transform="translate(-122.023 -44.321)"/><g class="b" transform="translate(7682.436 2483.524)"><path class="d" d="M -7643.94482421875 -2425.24755859375 L -7650.1962890625 -2425.24755859375 C -7650.66259765625 -2425.24755859375 -7651.04150390625 -2425.625732421875 -7651.04150390625 -2426.0908203125 C -7651.04150390625 -2426.556884765625 -7650.66259765625 -2426.935791015625 -7650.1962890625 -2426.935791015625 L -7647.91455078125 -2426.935791015625 L -7647.91455078125 -2431.53955078125 L -7650.138671875 -2431.53955078125 C -7651.75390625 -2431.53955078125 -7653.06787109375 -2432.853515625 -7653.06787109375 -2434.468505859375 L -7653.06787109375 -2452.530029296875 C -7653.06787109375 -2454.145263671875 -7651.75390625 -2455.459228515625 -7650.138671875 -2455.459228515625 L -7647.91455078125 -2455.459228515625 L -7647.91455078125 -2460.062744140625 L -7650.138671875 -2460.062744140625 C -7650.60498046875 -2460.062744140625 -7650.98388671875 -2460.44189453125 -7650.98388671875 -2460.907958984375 C -7650.98388671875 -2461.373046875 -7650.60498046875 -2461.751220703125 -7650.138671875 -2461.751220703125 L -7647.0693359375 -2461.751220703125 L -7643.88720703125 -2461.751220703125 C -7643.4208984375 -2461.751220703125 -7643.0419921875 -2461.373046875 -7643.0419921875 -2460.907958984375 C -7643.0419921875 -2460.44189453125 -7643.4208984375 -2460.062744140625 -7643.88720703125 -2460.062744140625 L -7646.22607421875 -2460.062744140625 L -7646.22607421875 -2455.459228515625 L -7643.88720703125 -2455.459228515625 C -7642.27197265625 -2455.459228515625 -7640.9580078125 -2454.145263671875 -7640.9580078125 -2452.530029296875 L -7640.9580078125 -2434.468505859375 C -7640.9580078125 -2432.853515625 -7642.27197265625 -2431.53955078125 -7643.88720703125 -2431.53955078125 L -7646.22607421875 -2431.53955078125 L -7646.22607421875 -2426.935791015625 L -7643.94482421875 -2426.935791015625 C -7643.478515625 -2426.935791015625 -7643.099609375 -2426.556884765625 -7643.099609375 -2426.0908203125 C -7643.099609375 -2425.625732421875 -7643.478515625 -2425.24755859375 -7643.94482421875 -2425.24755859375 Z M -7650.138671875 -2453.768798828125 C -7650.82177734375 -2453.768798828125 -7651.37744140625 -2453.213134765625 -7651.37744140625 -2452.530029296875 L -7651.37744140625 -2434.468505859375 C -7651.37744140625 -2433.785400390625 -7650.82177734375 -2433.229736328125 -7650.138671875 -2433.229736328125 L -7647.0693359375 -2433.229736328125 L -7643.88720703125 -2433.229736328125 C -7643.203125 -2433.229736328125 -7642.646484375 -2433.785400390625 -7642.646484375 -2434.468505859375 L -7642.646484375 -2452.530029296875 C -7642.646484375 -2453.213134765625 -7643.203125 -2453.768798828125 -7643.88720703125 -2453.768798828125 L -7650.138671875 -2453.768798828125 Z"/><path class="e" d="M -7643.94482421875 -2425.3974609375 C -7643.560546875 -2425.3974609375 -7643.24951171875 -2425.70849609375 -7643.24951171875 -2426.0908203125 C -7643.24951171875 -2426.474853515625 -7643.560546875 -2426.785888671875 -7643.94482421875 -2426.785888671875 L -7646.3759765625 -2426.785888671875 L -7646.3759765625 -2431.689453125 L -7643.88720703125 -2431.689453125 C -7642.3544921875 -2431.689453125 -7641.10791015625 -2432.935791015625 -7641.10791015625 -2434.468505859375 L -7641.10791015625 -2452.530029296875 C -7641.10791015625 -2454.062744140625 -7642.3544921875 -2455.309326171875 -7643.88720703125 -2455.309326171875 L -7646.3759765625 -2455.309326171875 L -7646.3759765625 -2460.212646484375 L -7643.88720703125 -2460.212646484375 C -7643.5029296875 -2460.212646484375 -7643.19189453125 -2460.523681640625 -7643.19189453125 -2460.907958984375 C -7643.19189453125 -2461.2900390625 -7643.5029296875 -2461.601318359375 -7643.88720703125 -2461.601318359375 L -7647.0693359375 -2461.601318359375 L -7650.138671875 -2461.601318359375 C -7650.52294921875 -2461.601318359375 -7650.833984375 -2461.2900390625 -7650.833984375 -2460.907958984375 C -7650.833984375 -2460.523681640625 -7650.52294921875 -2460.212646484375 -7650.138671875 -2460.212646484375 L -7647.7646484375 -2460.212646484375 L -7647.7646484375 -2455.309326171875 L -7650.138671875 -2455.309326171875 C -7651.67138671875 -2455.309326171875 -7652.91796875 -2454.062744140625 -7652.91796875 -2452.530029296875 L -7652.91796875 -2434.468505859375 C -7652.91796875 -2432.935791015625 -7651.67138671875 -2431.689453125 -7650.138671875 -2431.689453125 L -7647.7646484375 -2431.689453125 L -7647.7646484375 -2426.785888671875 L -7650.1962890625 -2426.785888671875 C -7650.58056640625 -2426.785888671875 -7650.8916015625 -2426.474853515625 -7650.8916015625 -2426.0908203125 C -7650.8916015625 -2425.70849609375 -7650.58056640625 -2425.3974609375 -7650.1962890625 -2425.3974609375 L -7643.94482421875 -2425.3974609375 M -7650.138671875 -2453.918701171875 L -7643.88720703125 -2453.918701171875 C -7643.12060546875 -2453.918701171875 -7642.49658203125 -2453.29638671875 -7642.49658203125 -2452.530029296875 L -7642.49658203125 -2434.468505859375 C -7642.49658203125 -2433.7021484375 -7643.12060546875 -2433.079833984375 -7643.88720703125 -2433.079833984375 L -7647.0693359375 -2433.079833984375 L -7650.138671875 -2433.079833984375 C -7650.90478515625 -2433.079833984375 -7651.52734375 -2433.7021484375 -7651.52734375 -2434.468505859375 L -7651.52734375 -2452.530029296875 C -7651.52734375 -2453.29638671875 -7650.90478515625 -2453.918701171875 -7650.138671875 -2453.918701171875 M -7643.94482421875 -2425.097412109375 L -7650.1962890625 -2425.097412109375 C -7650.7451171875 -2425.097412109375 -7651.19140625 -2425.54296875 -7651.19140625 -2426.0908203125 C -7651.19140625 -2426.639404296875 -7650.7451171875 -2427.0859375 -7650.1962890625 -2427.0859375 L -7648.064453125 -2427.0859375 L -7648.064453125 -2431.389404296875 L -7650.138671875 -2431.389404296875 C -7651.83642578125 -2431.389404296875 -7653.2177734375 -2432.770751953125 -7653.2177734375 -2434.468505859375 L -7653.2177734375 -2452.530029296875 C -7653.2177734375 -2454.22802734375 -7651.83642578125 -2455.609375 -7650.138671875 -2455.609375 L -7648.064453125 -2455.609375 L -7648.064453125 -2459.91259765625 L -7650.138671875 -2459.91259765625 C -7650.6875 -2459.91259765625 -7651.1337890625 -2460.359130859375 -7651.1337890625 -2460.907958984375 C -7651.1337890625 -2461.455810546875 -7650.6875 -2461.9013671875 -7650.138671875 -2461.9013671875 L -7647.0693359375 -2461.9013671875 L -7643.88720703125 -2461.9013671875 C -7643.33837890625 -2461.9013671875 -7642.89208984375 -2461.455810546875 -7642.89208984375 -2460.907958984375 C -7642.89208984375 -2460.359130859375 -7643.33837890625 -2459.91259765625 -7643.88720703125 -2459.91259765625 L -7646.076171875 -2459.91259765625 L -7646.076171875 -2455.609375 L -7643.88720703125 -2455.609375 C -7642.189453125 -2455.609375 -7640.80810546875 -2454.22802734375 -7640.80810546875 -2452.530029296875 L -7640.80810546875 -2434.468505859375 C -7640.80810546875 -2432.770751953125 -7642.189453125 -2431.389404296875 -7643.88720703125 -2431.389404296875 L -7646.076171875 -2431.389404296875 L -7646.076171875 -2427.0859375 L -7643.94482421875 -2427.0859375 C -7643.39599609375 -2427.0859375 -7642.94970703125 -2426.639404296875 -7642.94970703125 -2426.0908203125 C -7642.94970703125 -2425.54296875 -7643.39599609375 -2425.097412109375 -7643.94482421875 -2425.097412109375 Z M -7650.138671875 -2453.61865234375 C -7650.73876953125 -2453.61865234375 -7651.2275390625 -2453.13037109375 -7651.2275390625 -2452.530029296875 L -7651.2275390625 -2434.468505859375 C -7651.2275390625 -2433.8681640625 -7650.73876953125 -2433.3798828125 -7650.138671875 -2433.3798828125 L -7647.0693359375 -2433.3798828125 L -7643.88720703125 -2433.3798828125 C -7643.28564453125 -2433.3798828125 -7642.79638671875 -2433.8681640625 -7642.79638671875 -2434.468505859375 L -7642.79638671875 -2452.530029296875 C -7642.79638671875 -2453.13037109375 -7643.28564453125 -2453.61865234375 -7643.88720703125 -2453.61865234375 L -7650.138671875 -2453.61865234375 Z"/></g><g class="b" transform="translate(7701.276 2490.471)"><path class="d" d="M -7643.8583984375 -2418.300537109375 L -7650.10986328125 -2418.300537109375 C -7650.576171875 -2418.300537109375 -7650.955078125 -2418.6787109375 -7650.955078125 -2419.143798828125 C -7650.955078125 -2419.60986328125 -7650.576171875 -2419.989013671875 -7650.10986328125 -2419.989013671875 L -7647.828125 -2419.989013671875 L -7647.828125 -2424.592529296875 L -7650.138671875 -2424.592529296875 C -7651.75390625 -2424.592529296875 -7653.06787109375 -2425.906494140625 -7653.06787109375 -2427.521484375 L -7653.06787109375 -2445.583251953125 C -7653.06787109375 -2447.1982421875 -7651.75390625 -2448.51220703125 -7650.138671875 -2448.51220703125 L -7647.85693359375 -2448.51220703125 L -7647.85693359375 -2460.062744140625 L -7650.138671875 -2460.062744140625 C -7650.60498046875 -2460.062744140625 -7650.98388671875 -2460.44189453125 -7650.98388671875 -2460.907958984375 C -7650.98388671875 -2461.373046875 -7650.60498046875 -2461.751220703125 -7650.138671875 -2461.751220703125 L -7647.01171875 -2461.751220703125 L -7643.88720703125 -2461.751220703125 C -7643.4208984375 -2461.751220703125 -7643.0419921875 -2461.373046875 -7643.0419921875 -2460.907958984375 C -7643.0419921875 -2460.44189453125 -7643.4208984375 -2460.062744140625 -7643.88720703125 -2460.062744140625 L -7646.16845703125 -2460.062744140625 L -7646.16845703125 -2448.51220703125 L -7643.88720703125 -2448.51220703125 C -7642.27197265625 -2448.51220703125 -7640.9580078125 -2447.1982421875 -7640.9580078125 -2445.583251953125 L -7640.9580078125 -2427.521484375 C -7640.9580078125 -2425.906494140625 -7642.27197265625 -2424.592529296875 -7643.88720703125 -2424.592529296875 L -7646.1396484375 -2424.592529296875 L -7646.1396484375 -2419.989013671875 L -7643.8583984375 -2419.989013671875 C -7643.39208984375 -2419.989013671875 -7643.01318359375 -2419.60986328125 -7643.01318359375 -2419.143798828125 C -7643.01318359375 -2418.6787109375 -7643.39208984375 -2418.300537109375 -7643.8583984375 -2418.300537109375 Z M -7650.138671875 -2446.822021484375 C -7650.82177734375 -2446.822021484375 -7651.37744140625 -2446.266357421875 -7651.37744140625 -2445.583251953125 L -7651.37744140625 -2427.521484375 C -7651.37744140625 -2426.838623046875 -7650.82177734375 -2426.282958984375 -7650.138671875 -2426.282958984375 L -7646.98291015625 -2426.282958984375 L -7643.88720703125 -2426.282958984375 C -7643.203125 -2426.282958984375 -7642.646484375 -2426.838623046875 -7642.646484375 -2427.521484375 L -7642.646484375 -2445.583251953125 C -7642.646484375 -2446.266357421875 -7643.203125 -2446.822021484375 -7643.88720703125 -2446.822021484375 L -7650.138671875 -2446.822021484375 Z"/><path class="e" d="M -7643.8583984375 -2418.450439453125 C -7643.47412109375 -2418.450439453125 -7643.1630859375 -2418.76171875 -7643.1630859375 -2419.143798828125 C -7643.1630859375 -2419.52783203125 -7643.47412109375 -2419.839111328125 -7643.8583984375 -2419.839111328125 L -7646.28955078125 -2419.839111328125 L -7646.28955078125 -2424.742431640625 L -7643.88720703125 -2424.742431640625 C -7642.3544921875 -2424.742431640625 -7641.10791015625 -2425.989013671875 -7641.10791015625 -2427.521484375 L -7641.10791015625 -2445.583251953125 C -7641.10791015625 -2447.115966796875 -7642.3544921875 -2448.3623046875 -7643.88720703125 -2448.3623046875 L -7646.318359375 -2448.3623046875 L -7646.318359375 -2460.212646484375 L -7643.88720703125 -2460.212646484375 C -7643.5029296875 -2460.212646484375 -7643.19189453125 -2460.523681640625 -7643.19189453125 -2460.907958984375 C -7643.19189453125 -2461.2900390625 -7643.5029296875 -2461.601318359375 -7643.88720703125 -2461.601318359375 L -7647.01171875 -2461.601318359375 L -7650.138671875 -2461.601318359375 C -7650.52294921875 -2461.601318359375 -7650.833984375 -2461.2900390625 -7650.833984375 -2460.907958984375 C -7650.833984375 -2460.523681640625 -7650.52294921875 -2460.212646484375 -7650.138671875 -2460.212646484375 L -7647.70703125 -2460.212646484375 L -7647.70703125 -2448.3623046875 L -7650.138671875 -2448.3623046875 C -7651.67138671875 -2448.3623046875 -7652.91796875 -2447.115966796875 -7652.91796875 -2445.583251953125 L -7652.91796875 -2427.521484375 C -7652.91796875 -2425.989013671875 -7651.67138671875 -2424.742431640625 -7650.138671875 -2424.742431640625 L -7647.67822265625 -2424.742431640625 L -7647.67822265625 -2419.839111328125 L -7650.10986328125 -2419.839111328125 C -7650.494140625 -2419.839111328125 -7650.80517578125 -2419.52783203125 -7650.80517578125 -2419.143798828125 C -7650.80517578125 -2418.76171875 -7650.494140625 -2418.450439453125 -7650.10986328125 -2418.450439453125 L -7643.8583984375 -2418.450439453125 M -7650.138671875 -2446.971923828125 L -7643.88720703125 -2446.971923828125 C -7643.12060546875 -2446.971923828125 -7642.49658203125 -2446.349609375 -7642.49658203125 -2445.583251953125 L -7642.49658203125 -2427.521484375 C -7642.49658203125 -2426.75537109375 -7643.12060546875 -2426.133056640625 -7643.88720703125 -2426.133056640625 L -7646.98291015625 -2426.133056640625 L -7650.138671875 -2426.133056640625 C -7650.90478515625 -2426.133056640625 -7651.52734375 -2426.75537109375 -7651.52734375 -2427.521484375 L -7651.52734375 -2445.583251953125 C -7651.52734375 -2446.349609375 -7650.90478515625 -2446.971923828125 -7650.138671875 -2446.971923828125 M -7643.8583984375 -2418.150390625 L -7650.10986328125 -2418.150390625 C -7650.65869140625 -2418.150390625 -7651.10498046875 -2418.595947265625 -7651.10498046875 -2419.143798828125 C -7651.10498046875 -2419.692626953125 -7650.65869140625 -2420.13916015625 -7650.10986328125 -2420.13916015625 L -7647.97802734375 -2420.13916015625 L -7647.97802734375 -2424.4423828125 L -7650.138671875 -2424.4423828125 C -7651.83642578125 -2424.4423828125 -7653.2177734375 -2425.82373046875 -7653.2177734375 -2427.521484375 L -7653.2177734375 -2445.583251953125 C -7653.2177734375 -2447.281005859375 -7651.83642578125 -2448.662353515625 -7650.138671875 -2448.662353515625 L -7648.0068359375 -2448.662353515625 L -7648.0068359375 -2459.91259765625 L -7650.138671875 -2459.91259765625 C -7650.6875 -2459.91259765625 -7651.1337890625 -2460.359130859375 -7651.1337890625 -2460.907958984375 C -7651.1337890625 -2461.455810546875 -7650.6875 -2461.9013671875 -7650.138671875 -2461.9013671875 L -7647.01171875 -2461.9013671875 L -7643.88720703125 -2461.9013671875 C -7643.33837890625 -2461.9013671875 -7642.89208984375 -2461.455810546875 -7642.89208984375 -2460.907958984375 C -7642.89208984375 -2460.359130859375 -7643.33837890625 -2459.91259765625 -7643.88720703125 -2459.91259765625 L -7646.0185546875 -2459.91259765625 L -7646.0185546875 -2448.662353515625 L -7643.88720703125 -2448.662353515625 C -7642.189453125 -2448.662353515625 -7640.80810546875 -2447.281005859375 -7640.80810546875 -2445.583251953125 L -7640.80810546875 -2427.521484375 C -7640.80810546875 -2425.82373046875 -7642.189453125 -2424.4423828125 -7643.88720703125 -2424.4423828125 L -7645.98974609375 -2424.4423828125 L -7645.98974609375 -2420.13916015625 L -7643.8583984375 -2420.13916015625 C -7643.3095703125 -2420.13916015625 -7642.86328125 -2419.692626953125 -7642.86328125 -2419.143798828125 C -7642.86328125 -2418.595947265625 -7643.3095703125 -2418.150390625 -7643.8583984375 -2418.150390625 Z M -7650.138671875 -2446.671875 C -7650.73876953125 -2446.671875 -7651.2275390625 -2446.18359375 -7651.2275390625 -2445.583251953125 L -7651.2275390625 -2427.521484375 C -7651.2275390625 -2426.92138671875 -7650.73876953125 -2426.43310546875 -7650.138671875 -2426.43310546875 L -7646.98291015625 -2426.43310546875 L -7643.88720703125 -2426.43310546875 C -7643.28564453125 -2426.43310546875 -7642.79638671875 -2426.92138671875 -7642.79638671875 -2427.521484375 L -7642.79638671875 -2445.583251953125 C -7642.79638671875 -2446.18359375 -7643.28564453125 -2446.671875 -7643.88720703125 -2446.671875 L -7650.138671875 -2446.671875 Z"/></g><g class="b" transform="translate(7720.116 2490.471)"><path class="d" d="M -7643.94482421875 -2425.24755859375 L -7650.1962890625 -2425.24755859375 C -7650.66259765625 -2425.24755859375 -7651.04150390625 -2425.625732421875 -7651.04150390625 -2426.0908203125 C -7651.04150390625 -2426.556884765625 -7650.66259765625 -2426.935791015625 -7650.1962890625 -2426.935791015625 L -7647.91455078125 -2426.935791015625 L -7647.91455078125 -2431.53955078125 L -7650.138671875 -2431.53955078125 C -7651.75390625 -2431.53955078125 -7653.06787109375 -2432.853515625 -7653.06787109375 -2434.468505859375 L -7653.06787109375 -2452.530029296875 C -7653.06787109375 -2454.145263671875 -7651.75390625 -2455.459228515625 -7650.138671875 -2455.459228515625 L -7647.85693359375 -2455.459228515625 L -7647.85693359375 -2460.062744140625 L -7650.138671875 -2460.062744140625 C -7650.60498046875 -2460.062744140625 -7650.98388671875 -2460.44189453125 -7650.98388671875 -2460.907958984375 C -7650.98388671875 -2461.373046875 -7650.60498046875 -2461.751220703125 -7650.138671875 -2461.751220703125 L -7647.01171875 -2461.751220703125 L -7643.88720703125 -2461.751220703125 C -7643.4208984375 -2461.751220703125 -7643.0419921875 -2461.373046875 -7643.0419921875 -2460.907958984375 C -7643.0419921875 -2460.44189453125 -7643.4208984375 -2460.062744140625 -7643.88720703125 -2460.062744140625 L -7646.16650390625 -2460.062744140625 L -7646.16650390625 -2455.459228515625 L -7643.88720703125 -2455.459228515625 C -7642.27197265625 -2455.459228515625 -7640.9580078125 -2454.145263671875 -7640.9580078125 -2452.530029296875 L -7640.9580078125 -2434.468505859375 C -7640.9580078125 -2432.853515625 -7642.27197265625 -2431.53955078125 -7643.88720703125 -2431.53955078125 L -7646.22607421875 -2431.53955078125 L -7646.22607421875 -2426.935791015625 L -7643.94482421875 -2426.935791015625 C -7643.478515625 -2426.935791015625 -7643.099609375 -2426.556884765625 -7643.099609375 -2426.0908203125 C -7643.099609375 -2425.625732421875 -7643.478515625 -2425.24755859375 -7643.94482421875 -2425.24755859375 Z M -7650.138671875 -2453.768798828125 C -7650.82177734375 -2453.768798828125 -7651.37744140625 -2453.213134765625 -7651.37744140625 -2452.530029296875 L -7651.37744140625 -2434.468505859375 C -7651.37744140625 -2433.785400390625 -7650.82177734375 -2433.229736328125 -7650.138671875 -2433.229736328125 L -7647.0693359375 -2433.229736328125 L -7643.88720703125 -2433.229736328125 C -7643.203125 -2433.229736328125 -7642.646484375 -2433.785400390625 -7642.646484375 -2434.468505859375 L -7642.646484375 -2452.530029296875 C -7642.646484375 -2453.213134765625 -7643.203125 -2453.768798828125 -7643.88720703125 -2453.768798828125 L -7650.138671875 -2453.768798828125 Z"/><path class="e" d="M -7643.94482421875 -2425.3974609375 C -7643.560546875 -2425.3974609375 -7643.24951171875 -2425.70849609375 -7643.24951171875 -2426.0908203125 C -7643.24951171875 -2426.474853515625 -7643.560546875 -2426.785888671875 -7643.94482421875 -2426.785888671875 L -7646.3759765625 -2426.785888671875 L -7646.3759765625 -2431.689453125 L -7643.88720703125 -2431.689453125 C -7642.3544921875 -2431.689453125 -7641.10791015625 -2432.935791015625 -7641.10791015625 -2434.468505859375 L -7641.10791015625 -2452.530029296875 C -7641.10791015625 -2454.062744140625 -7642.3544921875 -2455.309326171875 -7643.88720703125 -2455.309326171875 L -7646.31640625 -2455.309326171875 L -7646.31640625 -2460.212646484375 L -7643.88720703125 -2460.212646484375 C -7643.5029296875 -2460.212646484375 -7643.19189453125 -2460.523681640625 -7643.19189453125 -2460.907958984375 C -7643.19189453125 -2461.2900390625 -7643.5029296875 -2461.601318359375 -7643.88720703125 -2461.601318359375 L -7647.01171875 -2461.601318359375 L -7650.138671875 -2461.601318359375 C -7650.52294921875 -2461.601318359375 -7650.833984375 -2461.2900390625 -7650.833984375 -2460.907958984375 C -7650.833984375 -2460.523681640625 -7650.52294921875 -2460.212646484375 -7650.138671875 -2460.212646484375 L -7647.70703125 -2460.212646484375 L -7647.70703125 -2455.309326171875 L -7650.138671875 -2455.309326171875 C -7651.67138671875 -2455.309326171875 -7652.91796875 -2454.062744140625 -7652.91796875 -2452.530029296875 L -7652.91796875 -2434.468505859375 C -7652.91796875 -2432.935791015625 -7651.67138671875 -2431.689453125 -7650.138671875 -2431.689453125 L -7647.7646484375 -2431.689453125 L -7647.7646484375 -2426.785888671875 L -7650.1962890625 -2426.785888671875 C -7650.58056640625 -2426.785888671875 -7650.8916015625 -2426.474853515625 -7650.8916015625 -2426.0908203125 C -7650.8916015625 -2425.70849609375 -7650.58056640625 -2425.3974609375 -7650.1962890625 -2425.3974609375 L -7643.94482421875 -2425.3974609375 M -7650.138671875 -2453.918701171875 L -7643.88720703125 -2453.918701171875 C -7643.12060546875 -2453.918701171875 -7642.49658203125 -2453.29638671875 -7642.49658203125 -2452.530029296875 L -7642.49658203125 -2434.468505859375 C -7642.49658203125 -2433.7021484375 -7643.12060546875 -2433.079833984375 -7643.88720703125 -2433.079833984375 L -7647.0693359375 -2433.079833984375 L -7650.138671875 -2433.079833984375 C -7650.90478515625 -2433.079833984375 -7651.52734375 -2433.7021484375 -7651.52734375 -2434.468505859375 L -7651.52734375 -2452.530029296875 C -7651.52734375 -2453.29638671875 -7650.90478515625 -2453.918701171875 -7650.138671875 -2453.918701171875 M -7643.94482421875 -2425.097412109375 L -7650.1962890625 -2425.097412109375 C -7650.7451171875 -2425.097412109375 -7651.19140625 -2425.54296875 -7651.19140625 -2426.0908203125 C -7651.19140625 -2426.639404296875 -7650.7451171875 -2427.0859375 -7650.1962890625 -2427.0859375 L -7648.064453125 -2427.0859375 L -7648.064453125 -2431.389404296875 L -7650.138671875 -2431.389404296875 C -7651.83642578125 -2431.389404296875 -7653.2177734375 -2432.770751953125 -7653.2177734375 -2434.468505859375 L -7653.2177734375 -2452.530029296875 C -7653.2177734375 -2454.22802734375 -7651.83642578125 -2455.609375 -7650.138671875 -2455.609375 L -7648.0068359375 -2455.609375 L -7648.0068359375 -2459.91259765625 L -7650.138671875 -2459.91259765625 C -7650.6875 -2459.91259765625 -7651.1337890625 -2460.359130859375 -7651.1337890625 -2460.907958984375 C -7651.1337890625 -2461.455810546875 -7650.6875 -2461.9013671875 -7650.138671875 -2461.9013671875 L -7647.01171875 -2461.9013671875 L -7643.88720703125 -2461.9013671875 C -7643.33837890625 -2461.9013671875 -7642.89208984375 -2461.455810546875 -7642.89208984375 -2460.907958984375 C -7642.89208984375 -2460.359130859375 -7643.33837890625 -2459.91259765625 -7643.88720703125 -2459.91259765625 L -7646.0166015625 -2459.91259765625 L -7646.0166015625 -2455.609375 L -7643.88720703125 -2455.609375 C -7642.189453125 -2455.609375 -7640.80810546875 -2454.22802734375 -7640.80810546875 -2452.530029296875 L -7640.80810546875 -2434.468505859375 C -7640.80810546875 -2432.770751953125 -7642.189453125 -2431.389404296875 -7643.88720703125 -2431.389404296875 L -7646.076171875 -2431.389404296875 L -7646.076171875 -2427.0859375 L -7643.94482421875 -2427.0859375 C -7643.39599609375 -2427.0859375 -7642.94970703125 -2426.639404296875 -7642.94970703125 -2426.0908203125 C -7642.94970703125 -2425.54296875 -7643.39599609375 -2425.097412109375 -7643.94482421875 -2425.097412109375 Z M -7650.138671875 -2453.61865234375 C -7650.73876953125 -2453.61865234375 -7651.2275390625 -2453.13037109375 -7651.2275390625 -2452.530029296875 L -7651.2275390625 -2434.468505859375 C -7651.2275390625 -2433.8681640625 -7650.73876953125 -2433.3798828125 -7650.138671875 -2433.3798828125 L -7647.0693359375 -2433.3798828125 L -7643.88720703125 -2433.3798828125 C -7643.28564453125 -2433.3798828125 -7642.79638671875 -2433.8681640625 -7642.79638671875 -2434.468505859375 L -7642.79638671875 -2452.530029296875 C -7642.79638671875 -2453.13037109375 -7643.28564453125 -2453.61865234375 -7643.88720703125 -2453.61865234375 L -7650.138671875 -2453.61865234375 Z"/></g></g></svg>