<svg xmlns="http://www.w3.org/2000/svg" width="22.306" height="19.754" viewBox="0 0 22.306 19.754"><defs><style>.a{fill:#fcaf17;}</style></defs><g transform="translate(0)"><path class="a" d="M233.476,180.639h-4.348V167.22h4.348Zm-2.286-15.1h-.031a2.377,2.377,0,0,1-2.594-2.325,2.66,2.66,0,1,1,2.625,2.325Zm19.681,15.1h-4.93v-6.945c0-1.818-.771-3.058-2.467-3.058a2.481,2.481,0,0,0-2.354,1.644,2.987,2.987,0,0,0-.107,1.1v7.262h-4.884s.063-12.3,0-13.419h4.884v2.106c.289-.921,1.849-2.235,4.341-2.235,3.089,0,5.517,1.931,5.517,6.086Z" transform="translate(-228.565 -160.885)"/></g></svg>