<svg xmlns="http://www.w3.org/2000/svg" width="20.151" height="19.83" viewBox="0 0 20.151 19.83"><defs><style>.a{fill:#fcaf17;}</style></defs><g transform="translate(0)"><g transform="translate(0.001 0)"><path class="a" d="M29.8,8.806H20.558A5.418,5.418,0,0,0,15.1,14.174v9.094a5.418,5.418,0,0,0,5.455,5.368H29.8a5.418,5.418,0,0,0,5.455-5.368V14.174A5.418,5.418,0,0,0,29.8,8.806ZM25.179,24.2a5.481,5.481,0,1,1,5.569-5.48,5.531,5.531,0,0,1-5.569,5.48Zm6.166-10.14a1.6,1.6,0,1,1,1.628-1.6,1.617,1.617,0,0,1-1.628,1.6Zm-.525.516" transform="translate(-15.103 -8.806)"/><path class="a" d="M25.179,15.526a3.355,3.355,0,1,0,3.355,3.355,3.359,3.359,0,0,0-3.355-3.355Zm0,0" transform="translate(-15.103 -8.967)"/></g><path class="a" d="M5.455,19.828A5.418,5.418,0,0,1,0,14.461V5.366A5.417,5.417,0,0,1,5.455,0H14.7a5.417,5.417,0,0,1,5.455,5.366v9.094A5.418,5.418,0,0,1,14.7,19.828ZM4.508,9.913a5.569,5.569,0,0,0,11.137,0,5.569,5.569,0,0,0-11.137,0Zm10.107-6.26a1.628,1.628,0,1,0,1.629-1.6A1.616,1.616,0,0,0,14.615,3.653ZM6.721,9.913a3.355,3.355,0,1,1,3.355,3.3A3.333,3.333,0,0,1,6.721,9.913Z" transform="translate(0 0.001)"/></g></svg>