<svg xmlns="http://www.w3.org/2000/svg" width="52.778" height="45.875" viewBox="0 0 52.778 45.875"><defs><style>.a{fill:#f4b07e;}.b{fill:#222020;stroke:#222020;stroke-width:0.5px;}</style></defs><g transform="translate(-931.748 -975.75)"><ellipse class="a" cx="7.382" cy="7.382" rx="7.382" ry="7.382" transform="translate(953.232 977.136)"/><path class="b" d="M28.545,1.74a7.653,7.653,0,0,1,7.529,8.938c5.839,2.416,9.994,6.852,11.357,12.015a12.13,12.13,0,0,0,1.234-.391,4.981,4.981,0,0,1,.162-1.381,1.2,1.2,0,0,1,.764-.82h0a1.02,1.02,0,0,1,.731.063,1.356,1.356,0,0,1,.466.4,1.651,1.651,0,0,1,.371,1.025,1.537,1.537,0,0,1-.358.932,2.769,2.769,0,0,1-.881.589c0,.01,0,.016,0,.026A4.189,4.189,0,0,0,50.426,25c.269.413.444.551.986.419a.681.681,0,0,1,.334,1.321l-.01,0a2.285,2.285,0,0,1-2.451-1A4.765,4.765,0,0,1,48.7,23.7c-.338.107-.679.205-.984.292a14.351,14.351,0,0,1,.205,2.39v0c0,5.145-2.783,9.99-7.492,13.316l-1.375,6.864a.683.683,0,0,1-.67.549H32.065a.68.68,0,0,1-.681-.681v-3a26.3,26.3,0,0,1-5.118.595h0a26.406,26.406,0,0,1-4.162-.411v2.813a.682.682,0,0,1-.679.683H15.1a.681.681,0,0,1-.668-.549l-1.238-6.182a18.557,18.557,0,0,1-6.911-7.338L.745,30.308a.683.683,0,0,1-.377-.557L0,25.284a.682.682,0,0,1,.5-.713l4.517-1.242a16.058,16.058,0,0,1,3.316-6.787,9.176,9.176,0,0,1-1.017-4.527A28.582,28.582,0,0,0,7.15,7.877a.682.682,0,0,1,.519-.812.567.567,0,0,1,.154-.016l.045,0a45.732,45.732,0,0,1,6.775.762A6.583,6.583,0,0,1,18.059,10l.049.057a25.077,25.077,0,0,1,2.8-.751A7.656,7.656,0,0,1,28.545,1.74Zm0,1.363A6.272,6.272,0,0,0,22.27,9.394c0,.109,0,.217.008.324v0a.76.76,0,0,1,.014.1,6.278,6.278,0,0,0,5.045,5.754c.2.038.4.067.6.087s.407.03.612.03c.172,0,.344-.008.512-.022l.04,0c.17-.016.34-.036.508-.065a6.275,6.275,0,0,0,5.021-4.667.586.586,0,0,1,.03-.089A6.295,6.295,0,0,0,28.545,3.1Zm.087,10.61M8.521,8.493c.111,1.1.122,2.26.154,3.486a7.63,7.63,0,0,0,.966,4.081l.049.067c.016.018.032.036.045.053a5.139,5.139,0,0,0,2.722,1.8l.034.008c.136.038.273.069.411.1.045.01.091.016.136.024.107.018.213.036.32.047.071.008.142.012.213.016s.152.014.227.016c.113,0,.223,0,.334,0a.962.962,0,0,0,.107,0c.12-.006.237-.02.354-.034.026,0,.051,0,.077-.008.119-.018.231-.04.344-.065.022-.006.043-.008.065-.014a3.424,3.424,0,0,0,.648-.227c.026-.012.055-.022.079-.034a2.251,2.251,0,0,0,.3-.178,2.844,2.844,0,0,0,.543-.506l.045-.057c.071-.087.142-.178.211-.275l.049-.077c.065-.1.13-.2.192-.3.016-.026.03-.053.043-.081.061-.109.12-.219.174-.334.018-.036.034-.071.049-.107.047-.107.093-.217.136-.328.02-.053.04-.107.057-.16.034-.093.063-.186.093-.282.022-.075.043-.15.061-.227s.039-.158.055-.237.038-.188.053-.282c.01-.055.018-.113.024-.168.016-.115.028-.231.036-.346l.006-.1c.006-.132.008-.265.006-.4l0-.045c-.006-.142-.016-.284-.032-.423l0-.026a3.593,3.593,0,0,0-.595-1.614l-.02-.034a2.906,2.906,0,0,0-.231-.284,4.925,4.925,0,0,0-2.755-1.8,44.752,44.752,0,0,0-5.783-.64Zm12.5,2.222c-.727.156-1.438.348-2.137.567a6.085,6.085,0,0,1,.3,3.5c-.012.063-.03.122-.041.184-.008.03-.01.061-.018.091s-.022.079-.032.119c-.03.124-.061.249-.1.371-.018.063-.038.124-.057.188-.041.128-.085.257-.134.383-.02.053-.041.107-.063.16-.051.124-.1.249-.162.371-.028.057-.059.113-.089.17a6.12,6.12,0,0,1-.5.824l-.01.014c-.049.065-.1.13-.148.194l-.034.039c-.043.055-.089.109-.136.162-.022.024-.043.045-.065.067-.038.041-.075.083-.113.12l-.095.093c-.034.032-.067.063-.1.093s-.057.049-.085.073-.081.069-.12.1c-.067.053-.136.1-.207.152s-.146.1-.221.142l-.083.047c-.049.028-.1.057-.152.083s-.085.041-.128.063l-.1.049c-.045.02-.093.038-.14.057s-.075.032-.113.045-.077.026-.115.038-.091.034-.138.047-.113.034-.17.047l-.083.024c-.067.018-.134.032-.2.045l-.063.014a5.9,5.9,0,0,1-.676.087l-.148.014c-.142.008-.284.008-.429.006-.045,0-.089,0-.134,0-.166-.006-.334-.02-.5-.038-.018,0-.038,0-.057-.006q-.281-.033-.563-.089h0l-.095-.016a6.743,6.743,0,0,1-3.316-1.718A14.483,14.483,0,0,0,6.2,24.016a.681.681,0,0,1-.488.531l-4.31,1.187.286,3.524L7.03,31.893a.677.677,0,0,1,.312.318,17.242,17.242,0,0,0,6.822,7.219.681.681,0,0,1,.32.45l1.173,5.87h5.078V42.87a.683.683,0,0,1,.681-.683.754.754,0,0,1,.132.014,24.326,24.326,0,0,0,10.358-.192.684.684,0,0,1,.82.508.7.7,0,0,1,.018.156V45.75h5.078l1.31-6.542a.69.69,0,0,1,.284-.429c4.561-3.115,7.138-7.648,7.138-12.394A12.861,12.861,0,0,0,46.326,24a.684.684,0,0,1-.146-.672c-1.161-4.758-4.971-8.912-10.482-11.252a7.678,7.678,0,0,1-3.093,3.8c.67-.091,1.339-.2,2.007-.334a.638.638,0,0,1,.136-.014.682.682,0,0,1,.132,1.351,32.836,32.836,0,0,1-12.991,0,.682.682,0,1,1,.237-1.343l.03.006q1.209.243,2.414.389a7.672,7.672,0,0,1-3.545-5.212Zm-7.61,11.9a.679.679,0,0,1,.67.693,2.635,2.635,0,0,1-2.141,2.572,3.236,3.236,0,0,1-3.393-2.111.682.682,0,0,1,1.2-.642l.024.051c.614,1.278,1.337,1.471,1.908,1.363a1.274,1.274,0,0,0,1.039-1.232.682.682,0,0,1,.67-.693Z" transform="translate(932 974.26)"/></g></svg>