<svg xmlns="http://www.w3.org/2000/svg" width="52.789" height="46.566" viewBox="0 0 52.789 46.566"><defs><style>.a{fill:#fff;}.b,.e{fill:#222020;stroke-linecap:round;stroke-linejoin:round;stroke-width:0.5px;}.b{stroke:#222020;}.c{fill:#fdfdfd;}.d{fill:#f4b07e;}.e{stroke:#221f1f;}</style></defs><g transform="translate(-1053.181 -1106.783)"><rect class="a" width="44.664" height="34.669" rx="2" transform="translate(1053.745 1112.982)"/><path class="b" d="M24.411,8.309v3.967H13.459a2.108,2.108,0,0,0-2.038,2.168v28.4a3.7,3.7,0,0,0,3.571,3.8H49.845a3.7,3.7,0,0,0,3.571-3.8v-28.4a2.108,2.108,0,0,0-2.038-2.168H40.427V8.309a2.226,2.226,0,0,0-2.151-2.29H26.562A2.226,2.226,0,0,0,24.411,8.309ZM52.185,42.844a2.42,2.42,0,0,1-2.34,2.489H14.992a2.42,2.42,0,0,1-2.34-2.489V24.8A66.441,66.441,0,0,0,20.5,26.9v2.666a1.535,1.535,0,0,0,1.484,1.578h2.384a1.535,1.535,0,0,0,1.484-1.578V27.734a59.626,59.626,0,0,0,6.566.37,59.651,59.651,0,0,0,6.567-.37v1.829a1.535,1.535,0,0,0,1.483,1.578h2.385a1.535,1.535,0,0,0,1.483-1.578V26.9a66.4,66.4,0,0,0,7.848-2.1ZM21.732,29.563V23.752a.26.26,0,0,1,.252-.268h2.384a.26.26,0,0,1,.252.268v5.812a.261.261,0,0,1-.252.269H21.985A.261.261,0,0,1,21.732,29.563Zm18.484,0V23.752a.26.26,0,0,1,.252-.268h2.385a.26.26,0,0,1,.252.268v5.812a.261.261,0,0,1-.252.269H40.469A.261.261,0,0,1,40.217,29.563Zm-.4-15.977H51.379a.833.833,0,0,1,.806.857v8.985a65.648,65.648,0,0,1-7.848,2.133v-1.81a1.535,1.535,0,0,0-1.483-1.578H40.469a1.535,1.535,0,0,0-1.483,1.578v2.665a58.359,58.359,0,0,1-13.133,0V23.752a1.535,1.535,0,0,0-1.484-1.578H21.985A1.535,1.535,0,0,0,20.5,23.752v1.81a65.648,65.648,0,0,1-7.848-2.133V14.443a.833.833,0,0,1,.806-.857H39.812ZM28.37,12.274v-2h8.1v2ZM39.2,8.309v3.967H37.7V10.129A1.136,1.136,0,0,0,36.6,8.96H28.237a1.136,1.136,0,0,0-1.1,1.168v2.147h-1.5V8.309a.952.952,0,0,1,.92-.979H38.276A.952.952,0,0,1,39.2,8.309Z" transform="translate(1042.01 1101.014)"/><rect class="c" width="21.932" height="17.652" transform="translate(1081.258 1134.728)"/><rect class="d" width="6.153" height="19.803" transform="translate(1097.036 1132.576)"/><rect class="d" width="6.153" height="16.363" transform="translate(1086.388 1136.017)"/><rect class="d" width="6.153" height="9.902" transform="translate(1074.81 1142.478)"/><path class="e" d="M63.207,57.574H61.763V38.149a.642.642,0,0,0-.65-.634h-6a.619.619,0,0,0-.638.6.216.216,0,0,0,0,.035V57.574h-3.6V41.817a.7.7,0,0,0-.658-.707H44.243a.688.688,0,0,0-.646.707V57.574H40V48.648a.628.628,0,0,0-.623-.631h-6.01a.627.627,0,0,0-.652.6v8.954H30.685a.662.662,0,1,0,0,1.325H63.207a.662.662,0,0,0,0-1.325ZM44.922,42.435h4.636V57.574H44.922ZM34.041,57.574V49.342h4.636v8.232Zm21.761,0V38.84h4.636V57.574Z" transform="translate(1041.85 1094.201)"/></g></svg>