<svg xmlns="http://www.w3.org/2000/svg" width="53.2" height="42.14" viewBox="0 0 53.2 42.14"><defs><style>.a{fill:#f4b07e;}.b{fill:#222020;stroke:#222020;stroke-linecap:round;stroke-width:0.5px;}</style></defs><g transform="translate(-729.276 -979.027)"><path class="a" d="M195.043,287.052l4.777,9.52H182.973l4.76-9.52Z" transform="translate(564.534 704.071)"/><path class="a" d="M195.043,287.052l4.777,9.52H182.973l4.76-9.52Z" transform="translate(547.997 723.373)"/><path class="a" d="M195.043,287.052l4.777,9.52H182.973l4.76-9.52Z" transform="translate(581.078 723.373)"/><g transform="translate(729.565 979.277)"><path class="b" d="M178.595,267.029a.612.612,0,0,0-.535.631v6.12a.612.612,0,0,0,1.224.017V267.66a.613.613,0,0,0-.689-.631Zm-9.773,2.448a.613.613,0,0,0-.5.9l2.448,4.9a.62.62,0,0,0,1.111-.551l0,0-2.447-4.9A.612.612,0,0,0,168.822,269.477Zm19.622,0a.612.612,0,0,0-.535.344l-2.448,4.9a.62.62,0,1,0,1.108.558l0,0,2.448-4.9a.612.612,0,0,0-.574-.9Zm-13.56,8.587a.611.611,0,0,0-.44.325l-4.724,9.466h-3.289a.6.6,0,0,0-.115,0,.613.613,0,0,0-.44.325l-4.723,9.467h-3.29a.593.593,0,0,0-.115,0,.611.611,0,0,0-.44.325l-4.9,9.791a.612.612,0,0,0,.555.9H170.1a.424.424,0,0,0,.057,0h34.216a.612.612,0,0,0,.555-.9l-4.9-9.791a.612.612,0,0,0-.555-.325H196.19l-4.724-9.467a.612.612,0,0,0-.554-.325h-3.29l-4.724-9.466a.612.612,0,0,0-.555-.325H175a.6.6,0,0,0-.114,0Zm.5,1.224h6.579l4.285,8.567H171.1Zm-8.568,9.792h6.579l4.284,8.568H162.53Zm7.956,0h7.8l-3.9,7.784Zm9.18,0h6.579l4.284,8.568H179.666Zm-25.7,9.792h6.579l4.285,8.567H153.962l4.284-8.567Zm7.956,0H174l-3.9,7.784-3.9-7.784Zm9.18,0h6.579l4.285,8.567H171.1l4.284-8.567Zm7.956,0h7.8l-3.9,7.784-3.9-7.784Zm9.18,0H199.1l4.285,8.567H188.234l4.284-8.567Z" transform="translate(-152.341 -267.024)"/></g></g></svg>