<?xml version="1.0" encoding="UTF-8"?>
<svg xmlns="http://www.w3.org/2000/svg" xmlns:xlink="http://www.w3.org/1999/xlink" width="22pt" height="20pt" viewBox="0 0 22 20" version="1.1">
<g id="surface2">
<path style=" stroke:none;fill-rule:nonzero;fill:rgb(98.431373%,68.627451%,10.588235%);fill-opacity:1;" d="M 20.21875 4.550781 C 20.21875 8.179688 20.21875 11.820312 20.21875 15.449219 C 20.191406 15.53125 20.148438 15.601562 20.140625 15.679688 C 19.949219 16.839844 19.398438 17.800781 18.410156 18.421875 C 17.820312 18.789062 17.101562 18.96875 16.441406 19.230469 C 12.808594 19.230469 9.171875 19.230469 5.539062 19.230469 C 5.480469 19.199219 5.421875 19.171875 5.351562 19.160156 C 4.171875 18.988281 3.199219 18.429688 2.570312 17.429688 C 2.199219 16.839844 2.019531 16.121094 1.761719 15.460938 C 1.761719 11.828125 1.761719 8.191406 1.761719 4.558594 C 1.808594 4.46875 1.839844 4.398438 1.859375 4.320312 C 2.039062 3.160156 2.601562 2.199219 3.578125 1.589844 C 4.171875 1.21875 4.890625 1.039062 5.550781 0.78125 C 9.179688 0.78125 12.820312 0.78125 16.449219 0.78125 C 16.511719 0.808594 16.570312 0.839844 16.640625 0.851562 C 17.820312 1.019531 18.789062 1.578125 19.421875 2.578125 C 19.78125 3.171875 19.960938 3.890625 20.21875 4.550781 Z M 12.390625 15.058594 C 13.390625 16.851562 14.808594 17.171875 16.109375 16.738281 C 17.058594 16.421875 17.710938 15.25 17.550781 14.230469 C 17.21875 14.210938 16.898438 14.101562 16.761719 14.589844 C 16.660156 14.941406 16.320312 15.089844 15.949219 15.121094 C 15.339844 15.160156 14.71875 14.730469 14.398438 14.058594 C 17.21875 11.699219 16.839844 8 15.261719 6.109375 C 13.398438 3.890625 10.378906 3.351562 7.921875 4.828125 C 5.53125 6.269531 4.570312 9.179688 5.609375 11.769531 C 6.53125 14.039062 9.300781 15.910156 12.390625 15.058594 Z M 12.390625 15.058594 "/>
<path style=" stroke:none;fill-rule:nonzero;fill:rgb(100%,100%,100%);fill-opacity:1;" d="M 12.390625 15.058594 C 9.289062 15.910156 6.53125 14.050781 5.621094 11.761719 C 4.578125 9.160156 5.539062 6.25 7.929688 4.820312 C 10.390625 3.339844 13.410156 3.878906 15.269531 6.101562 C 16.859375 7.988281 17.230469 11.691406 14.410156 14.050781 C 14.730469 14.71875 15.351562 15.148438 15.960938 15.109375 C 16.328125 15.089844 16.671875 14.941406 16.769531 14.578125 C 16.910156 14.089844 17.230469 14.199219 17.558594 14.21875 C 17.71875 15.238281 17.070312 16.410156 16.121094 16.730469 C 14.808594 17.171875 13.390625 16.851562 12.390625 15.058594 Z M 8.910156 11.738281 C 10.230469 10.609375 11.898438 10.890625 13.511719 12.488281 C 13.53125 12.460938 13.558594 12.429688 13.570312 12.398438 C 13.601562 12.308594 13.640625 12.21875 13.660156 12.128906 C 14.109375 10.449219 14.109375 8.761719 13.648438 7.078125 C 13.480469 6.46875 13.179688 5.921875 12.648438 5.53125 C 11.019531 4.320312 8.710938 5.050781 8.109375 7 C 7.578125 8.730469 7.609375 10.511719 8.101562 12.25 C 8.589844 13.980469 10.128906 14.609375 11.898438 14.089844 C 11.300781 12.511719 10.480469 11.949219 9.128906 12.21875 C 9.058594 12.070312 8.988281 11.910156 8.910156 11.738281 Z M 8.910156 11.738281 "/>
<path style=" stroke:none;fill-rule:nonzero;fill:rgb(98.431373%,68.627451%,10.588235%);fill-opacity:1;" d="M 8.910156 11.738281 C 8.988281 11.910156 9.058594 12.070312 9.128906 12.21875 C 10.488281 11.949219 11.300781 12.5 11.898438 14.089844 C 10.128906 14.621094 8.589844 13.980469 8.101562 12.25 C 7.609375 10.511719 7.589844 8.730469 8.109375 7 C 8.699219 5.039062 11.019531 4.320312 12.648438 5.519531 C 13.179688 5.910156 13.488281 6.460938 13.648438 7.070312 C 14.109375 8.75 14.109375 10.441406 13.660156 12.121094 C 13.640625 12.210938 13.601562 12.300781 13.570312 12.390625 C 13.558594 12.421875 13.53125 12.449219 13.511719 12.480469 C 11.910156 10.890625 10.238281 10.609375 8.910156 11.738281 Z M 8.910156 11.738281 "/>
</g>
</svg>
