<?xml version="1.0" encoding="UTF-8"?>
<svg xmlns="http://www.w3.org/2000/svg" xmlns:xlink="http://www.w3.org/1999/xlink" width="22pt" height="20pt" viewBox="0 0 22 20" version="1.1">
<g id="surface2">
<path style=" stroke:none;fill-rule:nonzero;fill:rgb(98.431373%,68.627451%,10.588235%);fill-opacity:1;" d="M 11.019531 17.359375 C 8.578125 17.230469 6.148438 17.140625 3.738281 16.960938 C 1.921875 16.820312 1.128906 16.078125 0.890625 14.28125 C 0.480469 11.28125 0.460938 8.28125 0.960938 5.28125 C 1.199219 3.851562 2.121094 2.988281 3.558594 2.929688 C 6.601562 2.800781 9.648438 2.660156 12.691406 2.640625 C 14.640625 2.628906 16.589844 2.789062 18.539062 2.929688 C 20.070312 3.039062 20.949219 4.039062 21.171875 5.75 C 21.488281 8.320312 21.480469 10.890625 21.261719 13.460938 C 21.21875 13.929688 21.140625 14.390625 21.03125 14.851562 C 20.738281 16.101562 19.820312 16.871094 18.46875 16.960938 C 15.980469 17.109375 13.488281 17.230469 11.019531 17.359375 Z M 8.871094 13.078125 C 10.730469 12.019531 12.519531 11 14.390625 9.941406 C 12.5 8.871094 10.710938 7.851562 8.871094 6.800781 C 8.871094 8.929688 8.871094 10.960938 8.871094 13.078125 Z M 8.871094 13.078125 "/>
<path style=" stroke:none;fill-rule:nonzero;fill:rgb(100%,100%,100%);fill-opacity:1;" d="M 8.800781 13.140625 C 8.800781 11.019531 8.800781 8.988281 8.800781 6.859375 C 10.640625 7.910156 12.429688 8.921875 14.320312 10 C 12.449219 11.058594 10.660156 12.078125 8.800781 13.140625 Z M 8.800781 13.140625 "/>
</g>
</svg>
